<?xml version="1.0" encoding="utf-8"?><!-- Generator: Adobe Illustrator 23.0.0, SVG Export Plug-In . SVG Version: 6.00 Build 0)  -->
<svg xmlns:xlink="http://www.w3.org/1999/xlink" baseProfile="tiny" id="图层_1"
	 version="1.2" viewBox="0 0 612 792" x="0px" xmlns="http://www.w3.org/2000/svg" y="0px"
	 xml:space="preserve">
<g>
	<path d="M307.5,139c86.17,0,172.33,0.03,258.5-0.1c3.42,0,4.1,0.67,4.09,4.1c-0.11,169.33-0.11,338.67,0,508
		c0,3.42-0.67,4.1-4.09,4.09c-172.33-0.11-344.67-0.11-517,0c-3.42,0-4.1-0.67-4.09-4.09c0.11-169.33,0.11-338.67,0-508
		c0-3.42,0.67-4.1,4.09-4.1C135.17,139.03,221.33,139,307.5,139z M105.02,587.04c0,0-0.06-0.06-0.06-0.06
		c1.91,1.25,3.83,2.5,5.74,3.76c0.86,0.57,1.79,1.08,2.5,1.8c1.68,1.71,3.27,3.49,4.83,5.31c0.95,1.11,1.78,2.33,2.67,3.49
		c1.05,1.36,1.85,3.15,3.22,3.98c4.46,2.72,9.14,5.06,13.71,7.6c1.58,0.88,3.93,1.55,4.48,2.9c2.7,6.65,10.25,6.7,14.45,11.17
		c12.08,2.5,21.09,11.02,31.74,16.33c5.68,2.83,15.17,2.9,20.12-1.03c2.44-1.94,2.56-6.05-0.04-7.54c-3.13-1.79-6.43-3.33-9.77-4.68
		c-6.68-2.7-13.45-5.2-20.17-7.78c-0.15-0.06-0.28-0.18-0.42-0.27c-4.97-3.04-9.87-6.21-14.94-9.06c-2.39-1.34-5.57-1.52-7.6-3.19
		c-4.31-3.57-9.53-6.23-12.4-11.45c-0.42-0.77-2-0.95-3.08-1.3c-1.09-0.35-2.43-0.3-3.31-0.91c-5.7-3.95-11.35-7.96-16.88-12.13
		c-0.9-0.68-1.24-2.2-1.67-3.4c-0.5-1.39-0.42-3.19-1.29-4.21c-3.85-4.56-7.95-8.91-11.98-13.33c-2.9-3.19-6.9-5.67-6-11.05
		c0.43-2.56-1.38-3.54-3.74-3.4c-3.29,0.19-4.43-1.59-4.44-4.57c0-1.82,0.68-4.36-0.25-5.33c-4.68-4.9-0.21-12.82-5.95-17.23
		c-0.35-0.27-0.15-1.28-0.15-1.94c-0.05-10-0.13-19.99-0.11-29.99c0-1.45-0.02-3.52,0.86-4.25c3.52-2.96,2.78-6.87,3.03-10.61
		c0.17-2.64-0.31-5.65,0.78-7.85c3.1-6.21,6.42-12.42,10.54-17.96c2.23-3,3.17-5.9,3.7-9.33c0.24-1.57,0.84-3.21,1.71-4.53
		c4.08-6.16,8.7-11.99,12.35-18.38c2.87-5.02,4.56-10.63,8.68-15.04c3.67-3.94,6.62-8.54,10.21-12.57
		c2.76-3.09,6.02-5.34,10.69-5.26c3.59,0.06,7.75-0.04,10.69-1.74c4.83-2.8,9.54-5.63,14.84-7.49c4.64-1.63,9.03-4.17,13.77-5.29
		c5.46-1.3,11.16-1.7,16.79-2.11c7.39-0.54,12.45-4.53,16.6-10.21c0.95-1.3,0.93-2.05,0.35-3.76c-0.92-2.75-1.67-7.29-0.19-8.77
		c3.52-3.51,3.4-7.34,3.44-11.45c0.1-9.42-1.29-10.88-10.79-9.65c-6.85,0.89-13.84,0.25-20.55,3.11
		c-5.42,2.31-11.49,3.08-17.19,4.79c-6.46,1.94-12.75,4.51-19.28,6.15c-5.49,1.38-10.82,2.89-15.45,6.19
		c-2.19,1.56-4.03,1.37-4.73-1.03c-1.28-4.39-2.52-8.9-2.87-13.42c-0.52-6.76-0.22-13.58-0.35-20.38c-0.02-0.96-0.46-1.91-0.72-2.86
		c-0.73-2.63-2.01-5.23-2.11-7.89c-0.24-6.32,0.05-12.66,0.18-18.99c0.01-0.71,0.38-1.42,0.58-2.13c3.43,2.25,2.15-1.31,2.25-2.12
		c1.44-11.33,2.69-22.69,4.04-34.03c0.12-1,0.68-2.84,0.85-2.82c4.01,0.49,2.68-2.64,2.92-4.4c0.44-3.28-0.32-7,0.96-9.84
		c2.98-6.65,7.13-12.69,7.63-20.37c0.29-4.39,1.73-8.71,2.81-13.03c0.31-1.22,1.21-2.28,1.81-3.43c1.93-3.69,4.42-7.23,5.58-11.15
		c0.88-2.99,0.97-5.78,3.8-8.07c1.85-1.5,2.47-4.52,3.67-6.84c0.44-0.85,0.99-1.65,1.44-2.5c1.49-2.86,3.41-5.6,4.31-8.64
		c1.01-3.42-1.68-6.27-5.35-6.42c-1.5-0.06-3.07-0.26-4.47,0.11c-1.1,0.29-2.16,1.23-2.94,2.13c-1.35,1.56-2.2,3.64-3.74,4.93
		c-6.19,5.18-6.16,13.86-11.25,19.61c1.47,7.19-3.05,13.15-5.5,18.91c-2.34,5.51-5.22,10.84-7.21,16.72
		c-2.36,7-5.96,13.56-6.62,21.13c-0.72,8.28-5.07,15.92-4.51,24.47c0.05,0.76-0.58,1.55-0.78,2.35c-0.56,2.23-1.47,4.47-1.53,6.72
		c-0.37,15.81-0.74,31.62-0.74,47.43c0,12.32-0.01,24.69,0.97,36.95c0.78,9.82-2.72,18.66-4.49,27.9c-0.17,0.89-1.9,1.42-2.22,2.35
		c-0.45,1.31-0.74,3.06-0.21,4.21c0.64,1.39,2.13,2.45,3.39,3.49c3.69,3.06,3.74,3.77,0.95,7.44c-1.96,2.57-4.5,5.08-5.31,8.02
		c-0.83,3.01-1.75,5.17-4.63,6.43c-0.86,0.38-1.93,1.12-2.18,1.92c-1.63,5.36-5.01,9.61-8.46,13.82c-1.32,1.61-2.74,3.14-3.91,4.86
		c-3.65,5.35-2.18,12.5-6.76,17.86c-2.14,2.51-0.2,7.8-4.17,10.3c0.58,5.88-2.7,10.67-4.31,15.96c-1.71,5.61-2.18,11.59-3.23,17.4
		c-0.29,1.64-0.26,3.58-1.16,4.81c-2.73,3.7-2.12,7.87-2.46,11.98c-0.8,9.7,0.77,19,4.08,28.1c1.3,3.56,1.79,7.47,3.43,10.85
		c2.95,6.11,7.79,11.39,7.53,18.79c-0.02,0.46,0.19,1.12,0.52,1.37c4.15,3.06,5.42,8.08,8.28,11.94
		C96.3,579.08,100.91,582.87,105.02,587.04z M480.87,315.73c8.36-0.95,16.74-1.75,25.06-2.95c1.66-0.24,4.06-1.75,4.39-3.1
		c0.34-1.4-1.11-4.43-2.33-4.78c-4.05-1.15-8.3-1.54-11.56-4.66c-0.19-0.18-0.65-0.13-0.98-0.1c-9.1,0.88-18.6-2.56-27.33,2.56
		c-0.65,0.38-1.63,0.24-2.46,0.28c-8.15,0.34-16.3,0.57-24.43,1.03c-3.64,0.21-7.52,0.22-10.83,1.5
		c-9.02,3.49-18.22,3.16-27.49,2.27c-1.29-0.12-3.36-1.63-3.46-2.65c-0.24-2.48-0.42-6.38,0.98-7.32c3.1-2.07,7.13-2.87,10.88-3.8
		c2.06-0.51,4.3-0.28,6.47-0.31c12.65-0.17,25.31-0.75,37.93-0.27c5.03,0.19,10.75-0.87,15.23,3.15c0.6,0.54,1.93,0.37,2.92,0.34
		c4.39-0.14,8.5-0.32,12.94-2.11c4.99-2.01,11.12-1.53,16.75-1.53c10.31,0,20.62,0.42,30.93,0.73c1.81,0.05,4.12-0.26,5.33,0.7
		c4.04,3.18,8.57,1.99,12.97,2.24c3.41,0.19,4.54-1.91,3.09-4.3c-1.9-3.13-4.82-5.63-7.21-8.49c-1.41-1.68-2.56-3.57-3.95-5.26
		c-1.28-1.55-2.56-3.21-4.18-4.35c-0.97-0.68-2.62-0.3-3.88-0.66c-3.76-1.08-8.18,0.59-11.42-2.75c-0.25-0.26-0.97-0.1-1.46-0.11
		c-15.97-0.33-31.93-0.7-47.9-0.92c-2.29-0.03-4.62,0.58-6.89,1.06c-2.29,0.49-4.52,1.56-6.82,1.72
		c-10.62,0.75-21.26,1.07-31.87,1.95c-9.73,0.81-19.41,2.11-29.1,3.29c-1.23,0.15-2.37,0.94-3.57,1.37
		c-1.49,0.53-2.98,1.34-4.51,1.43c-8.47,0.5-16.97,0.52-25.4,1.35c-3.82,0.38-7.62,1.96-11.19,3.55c-2.73,1.22-3.27,3.95-1.34,6.27
		c2.71,3.26,2.31,6.32,0.38,9.62c-1.38,2.36-1.21,4.28,0.45,6.81c2.6,3.97,4.65,8.31,3.75,13.57c-0.94,5.46,1.32,7.93,6.88,8.8
		c1.77,0.28,3.66,0.53,5.21,1.34c5.84,3.03,11.81,2.46,16.66-1.77c0.99-0.86,2.13-1.75,3.35-2.11c5.36-1.59,10.71-3.31,16.18-4.34
		c4.54-0.86,9.3-0.54,13.89-1.25c4.05-0.63,7.95-2.36,12.01-2.86c6.1-0.75,12.76,0.49,18.31-1.51
		C461.7,314.99,471.22,315.5,480.87,315.73z M245.62,559.03c0.01,0.17,0.01,0.33,0.02,0.5c9.3-0.5,18.61-0.89,27.89-1.57
		c2.93-0.22,5.78-1.65,8.71-1.81c8.75-0.48,17.39-0.15,26.1-2.84c8.94-2.76,18.48-3.95,27.84-4.84c5.15-0.49,8.76-3.56,13.08-5.33
		c7.11-2.9,13.84-6.74,20.75-10.13c3.06-1.5,6.46-2.48,9.19-4.43c5.49-3.93,9.24-10.33,16.76-11.35c0.83-0.11,1.56-1.17,2.3-1.83
		c2.96-2.66,5.54-6.04,8.96-7.82c3.33-1.73,5.53-3.94,7.33-7c3.75-6.37,7.4-12.81,11.49-18.96c4.03-6.07,8.67-11.73,12.83-17.71
		c3.62-5.2,6.41-11.08,10.55-15.78c5.19-5.89,6.16-13.31,9.04-20.02c1.34-3.12,2.42-6.36,3.4-9.61c0.52-1.71,0.89-3.58,0.77-5.34
		c-0.59-8.63-1.04-17.2,2.93-25.32c0.55-1.12,0.3-2.62,0.44-3.94c0.13-1.15-0.14-2.82,0.51-3.36c4.15-3.42,2.05-8,2.48-12.07
		c0.25-2.32-0.27-4.5-3.25-4.58c-3.2-0.09-2.39,2.49-2.7,4.32c-0.56,3.26-0.2,7.19-1.94,9.61c-2.69,3.76-2.93,7.61-3.15,11.74
		c-0.07,1.29-0.04,3.54-0.57,3.71c-3.31,1.06-2.14,3.74-2.41,5.82c-0.77,5.92,0.18,12.3-5.22,16.86c-1.03,0.87-1.36,2.61-1.94,3.99
		c-2.26,5.43-5.59,10.53-5.04,16.81c0.04,0.43-0.29,0.96-0.57,1.35c-2.66,3.7-5.32,7.39-8.02,11.07c-1.66,2.26-3.59,4.35-5.02,6.75
		c-3.84,6.44-7.19,13.19-11.32,19.43c-2.1,3.17-4.41,6-4.83,9.95c-0.09,0.82-0.9,1.98-1.65,2.25c-5.84,2.16-9.21,6.99-13.45,11.13
		c-6.42,6.27-14.06,11.35-21.46,16.53c-5.76,4.03-12.19,6.92-18.91,9.13c-4.32,1.42-8.5,3.27-12.84,4.59
		c-6.47,1.96-13.07,3.47-19.53,5.44c-9.78,2.98-19.34,6.93-29.29,9.11c-9.48,2.08-19.31,2.79-29.03,3.42
		c-10.95,0.7-21.95,0.74-32.94,0.84c-3.13,0.03-6.52-0.09-9.33-1.26c-4.94-2.05-9.47-5.04-14.26-7.47
		c-1.75-0.89-3.76-1.25-5.62-1.95c-2.85-1.06-5.68-2.21-8.51-3.31c-4.12-1.6-8.25-3.19-12.38-4.77c-0.92-0.35-1.95-0.47-2.79-0.95
		c-6.09-3.48-11.89-7.6-18.28-10.38c-5.89-2.56-9.16-7.83-14.08-11.29c-0.24-0.17-0.48-0.6-0.43-0.87c0.66-4.2-2.78-6.46-4.6-9.39
		c-2.01-3.24-4.76-6-7.11-9.04c-2.59-3.35-6.7-6.52-7.3-10.23c-1.72-10.61-8.67-18.69-12.18-28.34c-0.2-0.55-1.45-0.72-2.21-1.06
		c-1.42,4.3-2.85,8.59-4.25,12.89c-0.04,0.12,0.07,0.34,0.17,0.46c3.79,4.33,2.68,9.72,3.32,14.78c0.61,4.89-0.23,10.35,5.01,13.77
		c1.1,0.72,1.31,2.96,1.7,4.56c1.6,6.54,4.23,12.18,9.13,17.3c3.66,3.82,6.47,7.8,12.16,8.2c0.15,0.01,0.28,0.17,0.42,0.26
		c6.15,4.41,12.26,8.9,18.47,13.22c3.77,2.62,7.86,4.81,11.54,7.54c5.02,3.73,9.48,8.37,16.38,8.4c0.64,0,1.27,0.38,1.92,0.52
		c4.33,0.92,8.69,1.72,12.99,2.78c3.94,0.97,8.06,1.71,11.66,3.47c4.4,2.16,8.66,3.79,13.67,3.53
		C234.61,558.82,240.12,559.03,245.62,559.03z M391.45,224.2c-1.13-1.9-1.95-5.05-3.47-5.43c-2.58-0.65-5.64,0.23-8.41,0.87
		c-1.8,0.41-3.41,1.63-5.16,2.32c-4.74,1.88-10.56,2.55-14.04,5.76c-4.68,4.34-10.13,6.34-15.53,8.86
		c-7.87,3.68-15.35,4.75-22.63-1.69c-2.57-2.28-6.28-0.65-8.26,2.89c-1.76,3.15-0.63,5.23,2.38,6.93c1.3,0.73,2.2,2.27,3.13,3.55
		c0.95,1.3,1.68,2.76,2.55,4.11c4.71,7.31,13.81,6.11,20.13,10.33c0.33,0.22,1.01,0.09,1.47-0.06c4.25-1.33,8.49-2.68,12.71-4.07
		c0.43-0.14,1-0.55,1.09-0.93c1.24-5.32,6.81-6.27,9.92-9.78c4.78-5.38,13.1-6.06,17.5-12.55
		C386.28,233.17,390.87,227.3,391.45,224.2z M226.11,265.85c-1.4-12.12-5.98-17.25-16.96-12.27c-1.62,0.74-3.53,1.22-5.29,1.2
		c-8.16-0.08-14.14,3.98-19.34,9.72c-0.76,0.84-1.53,1.69-2.44,2.35c-3.56,2.56-7.79,4.51-10.54,7.74c-1.8,2.12-1.95,6.05-1.83,9.14
		c0.03,0.82,3.94,2.42,5.77,2.07c5.63-1.06,11.4-2.26,16.58-4.58c7-3.14,13.65-2.65,20.59-0.56c1.46,0.44,3.73,0.99,4.55,0.27
		C221.95,276.73,225.59,271.73,226.11,265.85z M427.62,270.96c8.62-1.4,14.6-1.87,20.23-3.54c2.31-0.68,3.9-3.92,5.69-6.09
		c0.22-0.27-0.18-1.25-0.51-1.76c-2.51-3.89-10.15-5.21-14.1-2.56c-0.89,0.59-2.04,1.08-3.08,1.12c-10.12,0.38-20.25,0.5-30.36,0.99
		c-7.12,0.35-14.8-0.84-19.81,6.51c-1.02,1.5-3.28,2.16-4.97,3.21c1.89,0.93,3.87,1.7,5.64,2.82c5.56,3.55,11.13,3.21,16.84,0.44
		c1.16-0.56,2.48-1.08,3.74-1.09C414.71,270.91,422.5,270.96,427.62,270.96z M413.03,357.78c-0.85,7.8,2.71,14.64,4.9,21.76
		c0.3,0.98,1.88,2.24,2.8,2.19c1.19-0.07,2.68-1.09,3.36-2.14c0.96-1.48,0.84-3.78,1.98-4.97c1.89-1.98,0.99-3.23,0.17-5.22
		c-0.9-2.18-0.84-4.77-1.04-7.2c-0.03-0.38,0.74-0.97,1.25-1.2c0.21-0.09,0.85,0.44,1.09,0.82c2.05,3.28,4.04,6.61,6.09,9.9
		c1.83,2.93,4.69,4.2,7.7,2.79c3.1-1.45,3.13-4.91,1.74-7.39c-2.06-3.68-3.6-7.29-3.44-11.57c0.02-0.64-0.76-1.74-1.36-1.9
		c-3.7-0.97-4.08-4.16-5.54-6.95c-1.39-2.66-4.38-4.48-6.67-6.67c-0.91,2.23-1.84,4.45-2.7,6.7c-0.23,0.61-0.25,1.3-0.34,1.96
		c-0.44,3.24-2.16,3.77-4.93,2.46c-3.53-1.67-4.53-1.14-5.02,2.65C412.88,355.1,413.03,356.45,413.03,357.78z M166.37,326.94
		c0.05,0.21,0.1,0.42,0.15,0.63c2.99-0.76,6.2-1.06,8.93-2.36c7.17-3.39,14.16-7.04,22.48-6.23c6.03,0.59,10.24-3.35,14.72-6.35
		c1.98-1.33,1.62-3.23-0.8-4.05c-7.92-2.68-15.97-1.94-23.42,0.98c-6.32,2.48-12.35,5.38-19.28,5.47c-1.33,0.02-2.68-0.02-3.98,0.19
		c-4.17,0.69-7.4,4.79-6.7,8.88c0.74,4.3,4.44,2.25,6.91,2.83C165.69,327,166.04,326.94,166.37,326.94z M176.86,404.35
		c-0.16-8.69-4.99-14.72-11.5-19.73c-0.24-0.18-1.05,0.21-1.49,0.5c-4.87,3.21-9.98,6.24-10.53,12.97c-0.02,0.26-0.5,0.45-0.65,0.73
		c-1.74,3.3-3.52,6.58-5.13,9.94c-0.28,0.59,0.15,1.52,0.26,2.3c0.57-0.08,1.52,0.01,1.66-0.28c1.46-3.09,3.37-1.38,5.39-0.78
		c2.27,0.68,5.28,1.93,6.92,1.02c3.33-1.82,5.68-1.55,8.63,0.46c2.96,2.03,5.93,0.44,6.42-3.16
		C177.01,407.02,176.86,405.67,176.86,404.35z M324.07,266.38c-0.53-2.61,1.29-6.22-3.53-7.8c-5.4-1.76-9.07-6.01-12.26-10.7
		c-0.9-1.32-2.98-2.27-4.63-2.46c-0.71-0.08-1.85,2.12-2.51,3.44c-0.79,1.56-0.82,3.73-1.96,4.84c-2.54,2.48-2.27,4.34,0.05,6.71
		c3.13,3.19,6.57,6.28,8.82,10.05c1.71,2.87,3.77,3.96,6.61,4.41C322.36,276.09,324.1,274.55,324.07,266.38z M184.03,399.33
		c0.06,0,0.12,0,0.19,0c0,2.32-0.25,4.67,0.06,6.94c0.44,3.19,6.19,6.57,8.66,5.06c3.43-2.09,8.31-3.09,7.43-9.02
		c-0.14-0.94,2.02-2.04,2.55-3.3c0.52-1.24,0.86-3.06,0.32-4.14c-0.85-1.66-2.27-3.53-3.9-4.2c-3.38-1.38-7.05-2.74-10.6-2.73
		c-2.67,0.01-5.03,2.36-4.73,5.91C184.15,395.68,184.03,397.51,184.03,399.33z M405.61,366.8c-0.42-6.25-3.56-10.4-8.27-13.28
		c-1.58-0.97-4.43-1.18-6-0.38c-1.03,0.53-0.91,3.49-1.1,5.38c-0.08,0.77,0.21,1.68,0.58,2.4c2.7,5.32,5.49,10.6,8.2,15.91
		c0.98,1.92,2.05,1.63,2.75,0.01C403.17,373.56,404.34,370.16,405.61,366.8z M454.71,355.62c0.64-5.03-2.57-8.18-5.17-11.42
		c-1.9-2.37-7.13-2.98-9.11-1.49c-2,1.51-1.87,5.56,0.56,8.55c1.86,2.29,3.96,4.41,6.1,6.45c1.73,1.66,3.66,3.09,5.51,4.62
		C453.3,360.1,454,357.86,454.71,355.62z M206.72,400.53c0.25,3.08,0.27,5.58,0.72,8.01c0.4,2.13,1.32,4.73,4,4.04
		c1.38-0.35,2.71-2.53,3.25-4.16c0.8-2.39,0.13-5.16,2.7-7.11c0.75-0.57,0.25-2.8,0.33-4.27c-3.29,0.19-2.21-2.52-2.95-4.15
		c-0.59-1.3-2.16-3.2-3.03-3.07c-1.43,0.22-3.33,1.63-3.78,2.96C207.06,395.4,207.03,398.3,206.72,400.53z M124.85,414.83
		c0.19,2.58-0.08,4.24,0.51,5.51c0.51,1.1,1.95,2.4,3.05,2.46c1.38,0.08,3.79-0.73,4.07-1.65c1.16-3.92,1.88-8.01,2.32-12.08
		c0.11-1.08-1.14-2.91-2.2-3.34c-0.92-0.37-2.68,0.46-3.66,1.27C126.16,409.25,123.95,411.91,124.85,414.83z M383.96,367.99
		c-0.1-0.7-0.07-2.62-0.72-4.28c-0.51-1.31-2.24-3.4-2.75-3.22c-1.64,0.59-3.62,1.77-4.26,3.25c-0.88,2.04-1.05,4.61-0.77,6.85
		c0.19,1.54,1.35,3.53,2.65,4.24C382.15,377,384.01,375.07,383.96,367.99z M368.09,380.9c-0.78-0.64-1.15-1.12-1.63-1.27
		c-0.22-0.07-0.95,0.55-0.92,0.78c0.07,0.52,0.48,1,0.75,1.49C366.76,381.65,367.22,381.39,368.09,380.9z" fill="#FFFFFF"/>
	<path d="M105.02,587.04c-4.1-4.17-8.71-7.97-12.16-12.62c-2.86-3.86-4.13-8.88-8.28-11.94c-0.34-0.25-0.54-0.91-0.52-1.37
		c0.26-7.4-4.58-12.68-7.53-18.79c-1.63-3.38-2.13-7.29-3.43-10.85c-3.32-9.1-4.88-18.4-4.08-28.1c0.34-4.11-0.27-8.28,2.46-11.98
		c0.9-1.22,0.87-3.17,1.16-4.81c1.05-5.81,1.52-11.79,3.23-17.4c1.61-5.29,4.89-10.08,4.31-15.96c3.97-2.51,2.03-7.8,4.17-10.3
		c4.58-5.36,3.11-12.51,6.76-17.86c1.17-1.71,2.59-3.25,3.91-4.86c3.45-4.22,6.83-8.46,8.46-13.82c0.24-0.8,1.32-1.54,2.18-1.92
		c2.89-1.26,3.8-3.42,4.63-6.43c0.81-2.94,3.35-5.45,5.31-8.02c2.8-3.67,2.74-4.38-0.95-7.44c-1.26-1.04-2.75-2.1-3.39-3.49
		c-0.53-1.15-0.24-2.9,0.21-4.21c0.32-0.93,2.05-1.46,2.22-2.35c1.77-9.24,5.27-18.07,4.49-27.9c-0.98-12.27-0.97-24.63-0.97-36.95
		c0.01-15.81,0.37-31.62,0.74-47.43c0.05-2.25,0.96-4.49,1.53-6.72c0.2-0.8,0.83-1.59,0.78-2.35c-0.55-8.55,3.79-16.18,4.51-24.47
		c0.66-7.57,4.26-14.13,6.62-21.13c1.98-5.88,4.86-11.2,7.21-16.72c2.45-5.76,6.97-11.73,5.5-18.91c5.1-5.75,5.06-14.42,11.25-19.61
		c1.54-1.29,2.39-3.37,3.74-4.93c0.78-0.9,1.84-1.84,2.94-2.13c1.4-0.37,2.98-0.17,4.47-0.11c3.67,0.15,6.36,2.99,5.35,6.42
		c-0.9,3.04-2.82,5.78-4.31,8.64c-0.44,0.85-1,1.64-1.44,2.5c-1.2,2.32-1.81,5.35-3.67,6.84c-2.83,2.28-2.92,5.07-3.8,8.07
		c-1.15,3.92-3.65,7.46-5.58,11.15c-0.6,1.15-1.51,2.21-1.81,3.43c-1.09,4.31-2.52,8.64-2.81,13.03
		c-0.51,7.68-4.65,13.72-7.63,20.37c-1.28,2.85-0.52,6.56-0.96,9.84c-0.24,1.77,1.09,4.89-2.92,4.4c-0.17-0.02-0.73,1.82-0.85,2.82
		c-1.35,11.34-2.6,22.7-4.04,34.03c-0.1,0.8,1.18,4.36-2.25,2.12c-0.2,0.71-0.56,1.42-0.58,2.13c-0.13,6.33-0.43,12.67-0.18,18.99
		c0.1,2.65,1.37,5.26,2.11,7.89c0.26,0.95,0.71,1.9,0.72,2.86c0.13,6.79-0.17,13.62,0.35,20.38c0.35,4.53,1.58,9.04,2.87,13.42
		c0.7,2.4,2.55,2.59,4.73,1.03c4.63-3.29,9.96-4.81,15.45-6.19c6.53-1.64,12.81-4.21,19.28-6.15c5.7-1.71,11.77-2.48,17.19-4.79
		c6.71-2.86,13.71-2.22,20.55-3.11c9.5-1.24,10.89,0.23,10.79,9.65c-0.05,4.11,0.08,7.94-3.44,11.45c-1.48,1.48-0.73,6.02,0.19,8.77
		c0.57,1.71,0.6,2.46-0.35,3.76c-4.16,5.68-9.21,9.67-16.6,10.21c-5.62,0.41-11.33,0.81-16.79,2.11c-4.74,1.13-9.13,3.66-13.77,5.29
		c-5.3,1.86-10.01,4.69-14.84,7.49c-2.94,1.7-7.09,1.8-10.69,1.74c-4.67-0.08-7.93,2.17-10.69,5.26
		c-3.59,4.02-6.54,8.63-10.21,12.57c-4.11,4.41-5.81,10.02-8.68,15.04c-3.65,6.39-8.28,12.22-12.35,18.38
		c-0.87,1.32-1.47,2.96-1.71,4.53c-0.52,3.43-1.47,6.33-3.7,9.33c-4.12,5.55-7.44,11.75-10.54,17.96c-1.1,2.2-0.61,5.21-0.78,7.85
		c-0.25,3.74,0.49,7.65-3.03,10.61c-0.87,0.74-0.85,2.8-0.86,4.25c-0.02,10,0.06,19.99,0.11,29.99c0,0.66-0.2,1.68,0.15,1.94
		c5.74,4.41,1.27,12.33,5.95,17.23c0.93,0.97,0.25,3.52,0.25,5.33c0.01,2.97,1.15,4.76,4.44,4.57c2.36-0.14,4.17,0.85,3.74,3.4
		c-0.9,5.38,3.1,7.86,6,11.05c4.02,4.42,8.12,8.77,11.98,13.33c0.87,1.03,0.79,2.82,1.29,4.21c0.43,1.19,0.76,2.72,1.67,3.4
		c5.53,4.17,11.19,8.18,16.88,12.13c0.89,0.61,2.22,0.56,3.31,0.91c1.08,0.35,2.66,0.53,3.08,1.3c2.87,5.22,8.09,7.88,12.4,11.45
		c2.02,1.67,5.21,1.85,7.6,3.19c5.07,2.85,9.97,6.02,14.94,9.06c0.14,0.09,0.27,0.21,0.42,0.27c6.73,2.59,13.49,5.08,20.17,7.78
		c3.35,1.35,6.65,2.89,9.77,4.68c2.6,1.49,2.47,5.6,0.04,7.54c-4.95,3.94-14.44,3.86-20.12,1.03
		c-10.66-5.31-19.66-13.83-31.74-16.33c-4.2-4.46-11.75-4.52-14.45-11.17c-0.55-1.35-2.9-2.03-4.48-2.9
		c-4.57-2.54-9.25-4.88-13.71-7.6c-1.37-0.84-2.17-2.62-3.22-3.98c-0.9-1.16-1.72-2.38-2.67-3.49c-1.56-1.81-3.16-3.6-4.83-5.31
		c-0.71-0.72-1.64-1.23-2.5-1.8c-1.9-1.27-3.82-2.51-5.74-3.76C104.96,586.98,105.02,587.04,105.02,587.04z M170.01,360.15
		c0.09,0.33,0.19,0.66,0.28,0.99c2.44-0.85,4.88-1.71,7.32-2.55c1.68-0.57,3.46-1.76,5.05-1.56c8.18,1.06,15.06-3.49,22.63-4.97
		c0.93-0.18,2.36-1.89,2.21-2.59c-0.27-1.21-1.46-2.9-2.51-3.09c-1.84-0.34-3.87,0.22-5.8,0.53c-1.61,0.26-3.18,0.91-4.8,1.02
		c-7.11,0.46-14.27,0.49-21.35,1.27c-3.97,0.44-7.91,1.81-11.69,3.22c-2.35,0.88-3.54,5.55-1.76,7.1c1.52,1.32,3.33,3.87,6.26,1.62
		C166.89,360.35,168.61,360.45,170.01,360.15z"/>
	<path d="M480.87,315.73c-9.65-0.24-19.17-0.74-28.61,2.67c-5.55,2.01-12.21,0.77-18.31,1.51c-4.06,0.5-7.95,2.23-12.01,2.86
		c-4.58,0.71-9.34,0.39-13.89,1.25c-5.48,1.03-10.83,2.76-16.18,4.34c-1.22,0.36-2.36,1.25-3.35,2.11
		c-4.85,4.23-10.82,4.8-16.66,1.77c-1.55-0.81-3.44-1.06-5.21-1.34c-5.56-0.87-7.82-3.33-6.88-8.8c0.9-5.26-1.15-9.6-3.75-13.57
		c-1.66-2.53-1.84-4.45-0.45-6.81c1.93-3.3,2.33-6.36-0.38-9.62c-1.94-2.33-1.4-5.05,1.34-6.27c3.56-1.59,7.37-3.18,11.19-3.55
		c8.43-0.83,16.94-0.85,25.4-1.35c1.53-0.09,3.02-0.9,4.51-1.43c1.2-0.43,2.34-1.22,3.57-1.37c9.69-1.18,19.38-2.48,29.1-3.29
		c10.6-0.88,21.25-1.19,31.87-1.95c2.3-0.16,4.52-1.24,6.82-1.72c2.27-0.48,4.6-1.09,6.89-1.06c15.97,0.22,31.93,0.59,47.9,0.92
		c0.5,0.01,1.21-0.15,1.46,0.11c3.24,3.35,7.66,1.67,11.42,2.75c1.27,0.36,2.92-0.02,3.88,0.66c1.61,1.14,2.9,2.79,4.18,4.35
		c1.39,1.69,2.55,3.58,3.95,5.26c2.39,2.85,5.32,5.35,7.21,8.49c1.45,2.39,0.33,4.5-3.09,4.3c-4.4-0.25-8.92,0.94-12.97-2.24
		c-1.21-0.96-3.52-0.65-5.33-0.7c-10.31-0.3-20.62-0.72-30.93-0.73c-5.63,0-11.76-0.48-16.75,1.53c-4.44,1.79-8.55,1.97-12.94,2.11
		c-0.99,0.03-2.32,0.2-2.92-0.34c-4.48-4.03-10.2-2.97-15.23-3.15c-12.62-0.47-25.28,0.1-37.93,0.27c-2.16,0.03-4.41-0.2-6.47,0.31
		c-3.75,0.93-7.78,1.73-10.88,3.8c-1.4,0.94-1.22,4.84-0.98,7.32c0.1,1.02,2.17,2.52,3.46,2.65c9.27,0.89,18.47,1.22,27.49-2.27
		c3.31-1.28,7.19-1.29,10.83-1.5c8.14-0.47,16.29-0.7,24.43-1.03c0.83-0.03,1.81,0.11,2.46-0.28c8.73-5.11,18.23-1.67,27.33-2.56
		c0.33-0.03,0.79-0.08,0.98,0.1c3.25,3.12,7.51,3.51,11.56,4.66c1.23,0.35,2.67,3.38,2.33,4.78c-0.33,1.35-2.72,2.86-4.39,3.1
		C497.61,313.98,489.23,314.79,480.87,315.73z"/>
	<path d="M245.62,559.03c-5.5,0-11.01-0.22-16.49,0.06c-5.02,0.26-9.27-1.37-13.67-3.53c-3.59-1.76-7.72-2.5-11.66-3.47
		c-4.3-1.06-8.66-1.85-12.99-2.78c-0.65-0.14-1.28-0.52-1.92-0.52c-6.9-0.03-11.36-4.68-16.38-8.4c-3.68-2.73-7.77-4.92-11.54-7.54
		c-6.22-4.32-12.32-8.81-18.47-13.22c-0.14-0.1-0.27-0.25-0.42-0.26c-5.69-0.39-8.5-4.38-12.16-8.2c-4.91-5.12-7.53-10.76-9.13-17.3
		c-0.39-1.6-0.61-3.84-1.7-4.56c-5.24-3.42-4.39-8.87-5.01-13.77c-0.63-5.05,0.48-10.44-3.32-14.78c-0.1-0.12-0.21-0.33-0.17-0.46
		c1.41-4.3,2.83-8.59,4.25-12.89c0.76,0.35,2.01,0.51,2.21,1.06c3.51,9.65,10.46,17.73,12.18,28.34c0.6,3.71,4.72,6.87,7.3,10.23
		c2.34,3.04,5.1,5.8,7.11,9.04c1.82,2.93,5.27,5.19,4.6,9.39c-0.04,0.27,0.2,0.7,0.43,0.87c4.91,3.46,8.19,8.72,14.08,11.29
		c6.39,2.78,12.19,6.9,18.28,10.38c0.84,0.48,1.87,0.6,2.79,0.95c4.13,1.58,8.26,3.17,12.38,4.77c2.84,1.1,5.66,2.25,8.51,3.31
		c1.86,0.69,3.87,1.06,5.62,1.95c4.79,2.43,9.33,5.42,14.26,7.47c2.81,1.17,6.2,1.29,9.33,1.26c10.98-0.1,21.98-0.14,32.94-0.84
		c9.72-0.63,19.56-1.34,29.03-3.42c9.95-2.18,19.5-6.12,29.29-9.11c6.46-1.97,13.07-3.48,19.53-5.44c4.35-1.32,8.53-3.17,12.84-4.59
		c6.72-2.21,13.15-5.09,18.91-9.13c7.4-5.18,15.03-10.27,21.46-16.53c4.24-4.14,7.61-8.98,13.45-11.13
		c0.75-0.28,1.56-1.43,1.65-2.25c0.42-3.95,2.73-6.77,4.83-9.95c4.13-6.24,7.47-12.99,11.32-19.43c1.43-2.39,3.36-4.48,5.02-6.75
		c2.7-3.67,5.36-7.36,8.02-11.07c0.28-0.39,0.61-0.92,0.57-1.35c-0.55-6.28,2.78-11.39,5.04-16.81c0.57-1.37,0.9-3.11,1.94-3.99
		c5.4-4.56,4.45-10.94,5.22-16.86c0.27-2.08-0.91-4.76,2.41-5.82c0.54-0.17,0.51-2.42,0.57-3.71c0.22-4.13,0.46-7.98,3.15-11.74
		c1.74-2.42,1.38-6.35,1.94-9.61c0.31-1.82-0.5-4.41,2.7-4.32c2.98,0.08,3.49,2.26,3.25,4.58c-0.43,4.07,1.67,8.65-2.48,12.07
		c-0.65,0.54-0.38,2.21-0.51,3.36c-0.15,1.32,0.1,2.82-0.44,3.94c-3.97,8.12-3.52,16.69-2.93,25.32c0.12,1.76-0.26,3.63-0.77,5.34
		c-0.98,3.25-2.06,6.49-3.4,9.61c-2.88,6.71-3.85,14.13-9.04,20.02c-4.15,4.7-6.93,10.58-10.55,15.78
		c-4.17,5.98-8.8,11.65-12.83,17.71c-4.09,6.15-7.74,12.59-11.49,18.96c-1.8,3.06-4,5.26-7.33,7c-3.42,1.78-6,5.15-8.96,7.82
		c-0.74,0.66-1.46,1.71-2.3,1.83c-7.52,1.01-11.28,7.42-16.76,11.35c-2.72,1.95-6.13,2.92-9.19,4.43
		c-6.91,3.4-13.64,7.23-20.75,10.13c-4.32,1.77-7.93,4.84-13.08,5.33c-9.37,0.89-18.9,2.08-27.84,4.84
		c-8.71,2.69-17.35,2.37-26.1,2.84c-2.93,0.16-5.77,1.6-8.71,1.81c-9.29,0.69-18.59,1.07-27.89,1.57
		C245.64,559.37,245.63,559.2,245.62,559.03z"/>
	<path d="M391.45,224.2c-0.58,3.1-5.18,8.97-6.63,11.12c-4.39,6.49-12.72,7.17-17.5,12.55c-3.11,3.51-8.67,4.46-9.92,9.78
		c-0.09,0.38-0.66,0.79-1.09,0.93c-4.22,1.39-8.46,2.75-12.71,4.07c-0.46,0.14-1.13,0.28-1.47,0.06
		c-6.32-4.22-15.42-3.02-20.13-10.33c-0.87-1.36-1.61-2.81-2.55-4.11c-0.93-1.28-1.83-2.81-3.13-3.55c-3.01-1.7-4.15-3.78-2.38-6.93
		c1.98-3.53,5.68-5.17,8.26-2.89c7.28,6.44,14.76,5.37,22.63,1.69c5.41-2.53,10.85-4.53,15.53-8.86c3.47-3.22,9.29-3.89,14.04-5.76
		c1.76-0.69,3.36-1.91,5.16-2.32c2.77-0.64,5.83-1.52,8.41-0.87C389.5,219.15,390.32,222.3,391.45,224.2z"/>
	<path d="M226.11,265.85c-0.53,5.88-4.16,10.88-8.91,15.08c-0.82,0.72-3.09,0.17-4.55-0.27c-6.95-2.1-13.59-2.58-20.59,0.56
		c-5.19,2.32-10.95,3.52-16.58,4.58c-1.83,0.35-5.74-1.25-5.77-2.07c-0.12-3.08,0.03-7.02,1.83-9.14c2.75-3.23,6.98-5.18,10.54-7.74
		c0.91-0.65,1.69-1.51,2.44-2.35c5.19-5.74,11.17-9.8,19.34-9.72c1.77,0.02,3.67-0.47,5.29-1.2
		C220.14,248.6,224.71,253.73,226.11,265.85z"/>
	<path d="M427.62,270.96c-5.12,0-12.91-0.05-20.7,0.05c-1.26,0.02-2.58,0.53-3.74,1.09c-5.71,2.77-11.28,3.1-16.84-0.44
		c-1.76-1.12-3.75-1.89-5.64-2.82c1.69-1.05,3.95-1.71,4.97-3.21c5-7.35,12.69-6.16,19.81-6.51c10.11-0.5,20.24-0.62,30.36-0.99
		c1.05-0.04,2.19-0.52,3.08-1.12c3.95-2.64,11.6-1.33,14.1,2.56c0.33,0.51,0.74,1.49,0.51,1.76c-1.79,2.18-3.38,5.41-5.69,6.09
		C442.22,269.09,436.24,269.56,427.62,270.96z"/>
	<path d="M413.03,357.78c0-1.33-0.14-2.68,0.03-3.98c0.49-3.79,1.49-4.31,5.02-2.65c2.77,1.31,4.49,0.78,4.93-2.46
		c0.09-0.66,0.11-1.35,0.34-1.96c0.86-2.25,1.79-4.47,2.7-6.7c2.29,2.19,5.28,4.01,6.67,6.67c1.46,2.79,1.83,5.98,5.54,6.95
		c0.6,0.16,1.38,1.26,1.36,1.9c-0.16,4.28,1.38,7.89,3.44,11.57c1.39,2.48,1.36,5.94-1.74,7.39c-3.01,1.41-5.87,0.14-7.7-2.79
		c-2.05-3.29-4.03-6.61-6.09-9.9c-0.24-0.38-0.88-0.91-1.09-0.82c-0.51,0.23-1.28,0.81-1.25,1.2c0.2,2.43,0.14,5.02,1.04,7.2
		c0.82,1.98,1.72,3.24-0.17,5.22c-1.14,1.19-1.03,3.49-1.98,4.97c-0.68,1.05-2.17,2.07-3.36,2.14c-0.92,0.06-2.49-1.21-2.8-2.19
		C415.73,372.42,412.18,365.58,413.03,357.78z"/>
	<path d="M166.37,326.94c-0.33,0-0.68,0.06-1-0.01c-2.46-0.58-6.17,1.47-6.91-2.83c-0.7-4.09,2.52-8.19,6.7-8.88
		c1.3-0.22,2.65-0.18,3.98-0.19c6.94-0.09,12.97-2.99,19.28-5.47c7.45-2.92,15.51-3.66,23.42-0.98c2.43,0.82,2.79,2.72,0.8,4.05
		c-4.48,3-8.69,6.94-14.72,6.35c-8.32-0.81-15.32,2.84-22.48,6.23c-2.74,1.3-5.94,1.6-8.93,2.36
		C166.47,327.35,166.42,327.15,166.37,326.94z"/>
	<path d="M176.86,404.35c0,1.33,0.15,2.68-0.03,3.98c-0.49,3.6-3.46,5.19-6.42,3.16c-2.94-2.01-5.3-2.28-8.63-0.46
		c-1.64,0.9-4.65-0.35-6.92-1.02c-2.02-0.6-3.93-2.31-5.39,0.78c-0.14,0.29-1.09,0.19-1.66,0.28c-0.1-0.78-0.54-1.71-0.26-2.3
		c1.61-3.36,3.39-6.64,5.13-9.94c0.15-0.28,0.63-0.47,0.65-0.73c0.55-6.74,5.66-9.76,10.53-12.97c0.44-0.29,1.25-0.68,1.49-0.5
		C171.88,389.62,176.7,395.66,176.86,404.35z"/>
	<path d="M324.07,266.38c0.03,8.18-1.71,9.71-9.43,8.49c-2.83-0.45-4.89-1.54-6.61-4.41c-2.25-3.77-5.69-6.86-8.82-10.05
		c-2.32-2.37-2.59-4.23-0.05-6.71c1.14-1.11,1.18-3.28,1.96-4.84c0.66-1.31,1.8-3.52,2.51-3.44c1.65,0.19,3.73,1.14,4.63,2.46
		c3.19,4.69,6.86,8.94,12.26,10.7C325.36,260.15,323.54,263.76,324.07,266.38z"/>
	<path d="M184.03,399.33c0-1.82,0.13-3.66-0.03-5.47c-0.3-3.55,2.05-5.9,4.73-5.91c3.55-0.02,7.23,1.35,10.6,2.73
		c1.63,0.67,3.05,2.53,3.9,4.2c0.55,1.07,0.21,2.89-0.32,4.14c-0.53,1.26-2.69,2.37-2.55,3.3c0.88,5.93-4,6.93-7.43,9.02
		c-2.47,1.51-8.22-1.88-8.66-5.06c-0.31-2.27-0.06-4.63-0.06-6.94C184.15,399.33,184.09,399.33,184.03,399.33z"/>
	<path d="M405.61,366.8c-1.27,3.36-2.44,6.75-3.85,10.05c-0.69,1.62-1.77,1.91-2.75-0.01c-2.71-5.32-5.5-10.59-8.2-15.91
		c-0.37-0.72-0.66-1.62-0.58-2.4c0.2-1.89,0.07-4.86,1.1-5.38c1.57-0.8,4.42-0.59,6,0.38C402.06,356.4,405.19,360.56,405.61,366.8z"
		/>
	<path d="M454.71,355.62c-0.7,2.24-1.41,4.48-2.11,6.71c-1.84-1.53-3.78-2.97-5.51-4.62c-2.13-2.05-4.24-4.16-6.1-6.45
		c-2.42-2.99-2.55-7.05-0.56-8.55c1.98-1.49,7.21-0.88,9.11,1.49C452.14,347.44,455.35,350.6,454.71,355.62z"/>
	<path d="M206.72,400.53c0.31-2.23,0.34-5.13,1.23-7.74c0.46-1.33,2.36-2.75,3.78-2.96c0.87-0.13,2.44,1.78,3.03,3.07
		c0.74,1.63-0.33,4.34,2.95,4.15c-0.07,1.47,0.43,3.7-0.33,4.27c-2.57,1.95-1.9,4.71-2.7,7.11c-0.54,1.63-1.87,3.81-3.25,4.16
		c-2.68,0.68-3.6-1.91-4-4.04C206.99,406.11,206.98,403.6,206.72,400.53z"/>
	<path d="M124.85,414.83c-0.89-2.91,1.31-5.58,4.08-7.84c0.98-0.8,2.74-1.64,3.66-1.27c1.06,0.43,2.32,2.26,2.2,3.34
		c-0.43,4.07-1.16,8.16-2.32,12.08c-0.27,0.92-2.69,1.73-4.07,1.65c-1.09-0.06-2.53-1.35-3.05-2.46
		C124.77,419.07,125.03,417.41,124.85,414.83z"/>
	<path d="M383.96,367.99c0.05,7.08-1.82,9.02-5.84,6.84c-1.31-0.71-2.46-2.7-2.65-4.24c-0.28-2.24-0.11-4.81,0.77-6.85
		c0.64-1.48,2.62-2.66,4.26-3.25c0.5-0.18,2.24,1.91,2.75,3.22C383.89,365.36,383.86,367.28,383.96,367.99z"/>
	<path d="M368.09,380.9c-0.87,0.49-1.34,0.74-1.8,1c-0.27-0.49-0.67-0.97-0.75-1.49c-0.03-0.23,0.69-0.85,0.92-0.78
		C366.94,379.78,367.32,380.26,368.09,380.9z"/>
	<path d="M170.01,360.15c-1.4,0.3-3.12,0.2-4.15,0.99c-2.93,2.25-4.75-0.29-6.26-1.62c-1.78-1.55-0.59-6.22,1.76-7.1
		c3.78-1.41,7.71-2.78,11.69-3.22c7.07-0.78,14.23-0.81,21.35-1.27c1.61-0.1,3.18-0.76,4.8-1.02c1.93-0.31,3.96-0.88,5.8-0.53
		c1.05,0.2,2.25,1.89,2.51,3.09c0.15,0.7-1.28,2.41-2.21,2.59c-7.57,1.49-14.44,6.03-22.63,4.97c-1.59-0.21-3.37,0.98-5.05,1.56
		c-2.45,0.83-4.88,1.7-7.32,2.55C170.2,360.81,170.1,360.48,170.01,360.15z" fill="#FFFFFF"/>
	<path d="M105.02,587.04l-0.06-0.06L105.02,587.04z" fill="#FFFFFF"/>
</g>
</svg>
